Coordinates
version=1
nRows=20
nColumns=38
inDegrees=no

Units are S.I. units (second, meters, Newtons, ...)
If the header above contains a line with 'inDegrees', this indicates whether rotational values are in degrees (yes) or radians (no).

endheader
time	pelvis_tilt	pelvis_list	pelvis_rotation	pelvis_tx	pelvis_ty	pelvis_tz	hip_flexion_r	hip_adduction_r	hip_rotation_r	knee_angle_r	ankle_angle_r	subtalar_angle_r	mtp_angle_r	hip_flexion_l	hip_adduction_l	hip_rotation_l	knee_angle_l	ankle_angle_l	subtalar_angle_l	mtp_angle_l	lumbar_extension	lumbar_bending	lumbar_rotation	arm_flex_r	arm_add_r	arm_rot_r	elbow_flex_r	pro_sup_r	wrist_flex_r	wrist_dev_r	arm_flex_l	arm_add_l	arm_rot_l	elbow_flex_l	pro_sup_l	wrist_flex_l	wrist_dev_l
1.6	-0.301271	-0.0649322	0.0595206	1.00287	1.01916	-0.349087	0.208344	0.183597	0.111672	-1.0459	-0.12301	0	0	0.748443	0.0535455	-0.074049	-0.283296	0.117668	0	0	0.0924714	0.0574006	0.176601	-0.379277	-0.315422	-0.0470829	2.11413	1.94454	0	0	-0.72292	-0.16601	-0.19832	2.08768	1.84008	0	0
1.61	-0.308015	-0.0642446	0.0627765	1.00147	1.01117	-0.349313	0.257982	0.182363	0.0982286	-1.14193	-0.115553	0	0	0.759451	0.0564582	-0.0725824	-0.324347	0.0959746	0	0	0.0996519	0.0530547	0.166271	-0.39672	-0.310667	-0.0561407	2.07089	1.93189	0	0	-0.704336	-0.167436	-0.194901	2.08048	1.83349	0	0
1.62	-0.321269	-0.0614419	0.0652587	0.999557	1.00181	-0.349519	0.318728	0.173668	0.0809837	-1.23861	-0.108005	0	0	0.781799	0.0612366	-0.0750009	-0.379283	0.0675962	0	0	0.114714	0.0458824	0.154816	-0.414756	-0.30556	-0.0655808	2.02335	1.92997	0	0	-0.685982	-0.169746	-0.191938	2.07119	1.8377	0	0
1.63	-0.3289	-0.060963	0.0671502	0.997953	0.991869	-0.349331	0.373704	0.164719	0.0623258	-1.32993	-0.0969172	0	0	0.830304	0.064359	-0.0653893	-0.496718	0.0695432	0	0	0.123471	0.0411684	0.141929	-0.430983	-0.301338	-0.0743859	1.97264	1.91509	0	0	-0.666425	-0.171802	-0.18864	2.06064	1.82861	0	0
1.64	-0.331634	-0.0553757	0.0726598	0.995685	0.982428	-0.349358	0.424689	0.14586	0.0424307	-1.41637	-0.0808502	0	0	0.863232	0.0785446	-0.0485112	-0.598046	0.0997684	0	0	0.123634	0.0298095	0.124419	-0.44084	-0.295435	-0.0829921	1.91526	1.91064	0	0	-0.64134	-0.174652	-0.186121	2.04511	1.81903	0	0
1.65	-0.331854	-0.0477629	0.0784252	0.992938	0.973617	-0.349378	0.474318	0.122778	0.0257989	-1.49691	-0.0622226	0	0	0.890677	0.0950967	-0.0355661	-0.696635	0.152066	0	0	0.119178	0.0161411	0.105791	-0.446398	-0.288333	-0.0918506	1.85281	1.91814	0	0	-0.610918	-0.178065	-0.182926	2.02257	1.81232	0	0
1.66	-0.333292	-0.0387257	0.0824213	0.989807	0.965634	-0.349504	0.526991	0.0973473	0.0153093	-1.57043	-0.0432357	0	0	0.908503	0.108347	-0.0349144	-0.777971	0.208265	0	0	0.11567	0.00179795	0.0891393	-0.450351	-0.280247	-0.102084	1.78714	1.94278	0	0	-0.574716	-0.182742	-0.175026	1.98999	1.78873	0	0
1.67	-0.331545	-0.0311057	0.0834415	0.986795	0.959309	-0.349761	0.577048	0.0756911	0.0117404	-1.63388	-0.0255875	0	0	0.908892	0.11656	-0.0369069	-0.837006	0.257409	0	0	0.108693	-0.00869435	0.0762358	-0.453836	-0.273389	-0.111178	1.71966	1.94961	0	0	-0.530741	-0.187216	-0.161917	1.94558	1.78312	0	0
1.68	-0.331428	-0.0232815	0.0798413	0.983992	0.954367	-0.350065	0.629935	0.0568434	0.0159729	-1.68728	-0.00847928	0	0	0.898844	0.121553	-0.0406279	-0.876952	0.300644	0	0	0.104682	-0.0172256	0.0688791	-0.459764	-0.26688	-0.12305	1.65424	1.99481	0	0	-0.482133	-0.192215	-0.142478	1.89245	1.78327	0	0
1.69	-0.330206	-0.0144924	0.0737599	0.981564	0.951223	-0.350437	0.68137	0.0404398	0.0258062	-1.72901	0.00903192	0	0	0.877651	0.128153	-0.0399245	-0.901235	0.340638	0	0	0.099898	-0.0253387	0.0636196	-0.467181	-0.261996	-0.130961	1.59337	2.01012	0	0	-0.432111	-0.196736	-0.119817	1.83783	1.78549	0	0
1.7	-0.327529	-0.00582504	0.0680858	0.979453	0.95007	-0.350853	0.730064	0.0268324	0.0375425	-1.75831	0.0261275	0	0	0.84735	0.136038	-0.036145	-0.913172	0.375748	0	0	0.0934151	-0.0328378	0.0558093	-0.475802	-0.258888	-0.134923	1.54299	2.01146	0	0	-0.386288	-0.19902	-0.100165	1.79255	1.78682	0	0
1.71	-0.324703	0.00546181	0.0628282	0.977607	0.950824	-0.351363	0.776424	0.012823	0.0524361	-1.7751	0.0432764	0	0	0.808107	0.143468	-0.0403291	-0.909827	0.406341	0	0	0.0865569	-0.0432998	0.044585	-0.486237	-0.257395	-0.134142	1.50849	1.98176	0	0	-0.350872	-0.199249	-0.0901599	1.76716	1.80297	0	0
1.72	-0.322932	0.0134502	0.0590608	0.976011	0.953238	-0.351918	0.821065	0.0029381	0.0648854	-1.77872	0.0580336	0	0	0.76286	0.147873	-0.0444495	-0.894136	0.428235	0	0	0.0816069	-0.0498372	0.0285818	-0.500688	-0.258719	-0.132227	1.4949	1.95139	0	0	-0.329083	-0.196237	-0.0901508	1.76652	1.80864	0	0
1.73	-0.322696	0.0175498	0.0556055	0.974766	0.957022	-0.352524	0.863725	-0.00270255	0.0741684	-1.76962	0.070292	0	0	0.713057	0.148868	-0.0462435	-0.867866	0.441387	0	0	0.0798905	-0.0513099	0.00992926	-0.520142	-0.263095	-0.13051	1.5013	1.92336	0	0	-0.320059	-0.190516	-0.0975826	1.78858	1.80968	0	0
1.74	-0.324397	0.0196903	0.0518557	0.973981	0.961887	-0.353234	0.903701	-0.00596911	0.0813545	-1.74855	0.0814209	0	0	0.660214	0.148398	-0.0450319	-0.83237	0.446658	0	0	0.08235	-0.0498386	-0.0100683	-0.54369	-0.270256	-0.128165	1.52212	1.89395	0	0	-0.320618	-0.183134	-0.108591	1.82662	1.81401	0	0
1.75	-0.3273	0.0201687	0.0479914	0.973715	0.967742	-0.354033	0.939205	-0.0068976	0.0863734	-1.71596	0.0916998	0	0	0.605746	0.147297	-0.039112	-0.791033	0.441256	0	0	0.0881975	-0.0457897	-0.0299262	-0.570235	-0.279144	-0.124266	1.55101	1.83652	0	0	-0.32578	-0.175527	-0.116227	1.8717	1.79885	0	0
1.76	-0.331137	0.0200894	0.0438747	0.973945	0.974464	-0.354853	0.969282	-0.00600166	0.0903711	-1.67238	0.101353	0	0	0.550722	0.145376	-0.0321134	-0.745584	0.422496	0	0	0.0967613	-0.0404716	-0.0480275	-0.598908	-0.286626	-0.126609	1.58373	1.82292	0	0	-0.332372	-0.168842	-0.119183	1.91779	1.78228	0	0
1.77	-0.335626	0.0200025	0.0389947	0.97457	0.981872	-0.355587	0.993648	-0.0035227	0.0941259	-1.61853	0.110094	0	0	0.495836	0.142111	-0.0277876	-0.697101	0.388674	0	0	0.107265	-0.0347039	-0.0629817	-0.628963	-0.291856	-0.133286	1.61709	1.81662	0	0	-0.33922	-0.163996	-0.117323	1.9626	1.7587	0	0
1.78	-0.339528	0.0193008	0.0321276	0.975521	0.989792	-0.356047	1.01102	0.00138742	0.0973041	-1.55492	0.117765	0	0	0.440154	0.136294	-0.0280654	-0.645547	0.340164	0	0	0.117684	-0.0277309	-0.073197	-0.659846	-0.294064	-0.145244	1.64987	1.81835	0	0	-0.34566	-0.16118	-0.112683	2.00544	1.75067	0	0
1.79	-0.342884	0.0159461	0.0245919	0.976624	0.997934	-0.356191	1.02253	0.00857773	0.096876	-1.48245	0.122406	0	0	0.387731	0.126442	-0.031732	-0.598286	0.282354	0	0	0.12747	-0.0178016	-0.0802207	-0.691027	-0.29354	-0.160862	1.68169	1.81929	0	0	-0.351825	-0.160222	-0.105716	2.04709	1.75027	0	0
